<svg width="15" height="13" viewBox="0 0 15 13" fill="none" xmlns="http://www.w3.org/2000/svg">
<path d="M3.28125 3.71409C3.40557 3.71409 3.5248 3.66517 3.61271 3.57811C3.70061 3.49104 3.75 3.37296 3.75 3.24983C3.75 3.1267 3.70061 3.00861 3.61271 2.92155C3.5248 2.83448 3.40557 2.78557 3.28125 2.78557C3.15693 2.78557 3.0377 2.83448 2.94979 2.92155C2.86189 3.00861 2.8125 3.1267 2.8125 3.24983C2.8125 3.37296 2.86189 3.49104 2.94979 3.57811C3.0377 3.66517 3.15693 3.71409 3.28125 3.71409ZM2.8125 6.49965C2.8125 6.37652 2.86189 6.25844 2.94979 6.17137C3.0377 6.08431 3.15693 6.03539 3.28125 6.03539H6.09375C6.21807 6.03539 6.3373 6.08431 6.42521 6.17137C6.51311 6.25844 6.5625 6.37652 6.5625 6.49965C6.5625 6.62278 6.51311 6.74087 6.42521 6.82794C6.3373 6.915 6.21807 6.96391 6.09375 6.96391H3.28125C3.15693 6.96391 3.0377 6.915 2.94979 6.82794C2.86189 6.74087 2.8125 6.62278 2.8125 6.49965ZM3.28125 9.28522C3.15693 9.28522 3.0377 9.33413 2.94979 9.4212C2.86189 9.50826 2.8125 9.62635 2.8125 9.74948C2.8125 9.87261 2.86189 9.9907 2.94979 10.0778C3.0377 10.1648 3.15693 10.2137 3.28125 10.2137H6.09375C6.21807 10.2137 6.3373 10.1648 6.42521 10.0778C6.51311 9.9907 6.5625 9.87261 6.5625 9.74948C6.5625 9.62635 6.51311 9.50826 6.42521 9.4212C6.3373 9.33413 6.21807 9.28522 6.09375 9.28522H3.28125ZM1.875 12.9993H9.81469C10.4241 13.0179 11.0456 12.6632 11.2228 11.9064L11.6194 10.2137H13.5938C13.9667 10.2137 14.3244 10.067 14.5881 9.80581C14.8518 9.54461 15 9.19035 15 8.82096V4.25449C15 3.34175 14.2959 2.80599 13.5787 2.78557H9.375V1.39278C9.375 1.02339 9.22684 0.669134 8.96312 0.407937C8.6994 0.146739 8.34171 0 7.96875 0H1.40625C1.03329 0 0.675604 0.146739 0.411881 0.407937C0.148158 0.669134 0 1.02339 0 1.39278V11.1423C0 11.6348 0.197544 12.1071 0.549175 12.4554C0.900805 12.8037 1.37772 12.9993 1.875 12.9993ZM0.9375 1.39278C0.9375 1.26965 0.986886 1.15157 1.07479 1.0645C1.1627 0.977435 1.28193 0.928522 1.40625 0.928522H7.96875C8.09307 0.928522 8.2123 0.977435 8.30021 1.0645C8.38811 1.15157 8.4375 1.26965 8.4375 1.39278V11.5898C8.4375 11.7662 8.46469 11.9269 8.5125 12.0708H1.875C1.62636 12.0708 1.3879 11.973 1.21209 11.7988C1.03627 11.6247 0.9375 11.3885 0.9375 11.1423V1.39278ZM13.5938 9.28522H11.8378L13.0444 4.13935C13.1831 3.54695 14.0625 3.64723 14.0625 4.25449V8.82096C14.0625 8.94409 14.0131 9.06218 13.9252 9.14924C13.8373 9.23631 13.7181 9.28522 13.5938 9.28522ZM9.375 3.71409H12.1969C12.1716 3.78187 12.15 3.85337 12.1312 3.92858L10.3097 11.6966C10.1822 12.2398 9.375 12.1479 9.375 11.5898V3.71409Z" fill="#315466"/>
</svg>
